<svg width="183" height="182" viewBox="0 0 183 182" fill="none" xmlns="http://www.w3.org/2000/svg">
<path d="M97.3846 17.6192C96.3325 17.5288 95.34 17.2845 94.407 16.8864C93.4752 16.4751 92.7552 15.9893 92.2469 15.4289L93.109 13.9529C93.5955 14.4584 94.2335 14.8974 95.0229 15.27C95.8123 15.6425 96.6476 15.8666 97.5287 15.9424C98.331 16.0113 98.9899 15.9752 99.5055 15.834C100.021 15.6928 100.411 15.4746 100.675 15.1793C100.94 14.8708 101.09 14.5128 101.125 14.1051C101.165 13.6316 101.04 13.2366 100.749 12.9202C100.472 12.6049 100.091 12.3402 99.6054 12.1263C99.1346 11.9004 98.609 11.6963 98.0285 11.5139C97.448 11.3315 96.8626 11.1289 96.2723 10.9059C95.6963 10.6709 95.1703 10.3939 94.6942 10.0748C94.2314 9.75677 93.8685 9.35462 93.6055 8.86833C93.3437 8.36888 93.2445 7.75092 93.3077 7.01443C93.3688 6.30425 93.6088 5.66907 94.0279 5.10889C94.4613 4.53669 95.0812 4.10638 95.8877 3.81796C96.7084 3.51752 97.7237 3.41928 98.9337 3.52324C99.7359 3.59217 100.523 3.76575 101.294 4.04398C102.065 4.3222 102.722 4.68345 103.267 5.12772L102.481 6.64997C101.923 6.20457 101.322 5.86814 100.679 5.64066C100.038 5.40004 99.4077 5.25317 98.7896 5.20006C98.0136 5.13339 97.3673 5.17722 96.8506 5.33155C96.3339 5.48588 95.9431 5.71727 95.6781 6.02572C95.4263 6.3353 95.2828 6.69394 95.2478 7.10164C95.206 7.58824 95.3239 7.98921 95.6015 8.30453C95.8923 8.62099 96.2736 8.88561 96.7456 9.09839C97.2306 9.3123 97.7628 9.51701 98.3422 9.71253C98.9228 9.8949 99.5016 10.097 100.079 10.3188C100.669 10.5418 101.196 10.8122 101.658 11.1302C102.134 11.4494 102.504 11.8521 102.767 12.3384C103.03 12.8247 103.13 13.4295 103.068 14.1528C103.008 14.8498 102.762 15.4845 102.328 16.0567C101.896 16.6157 101.263 17.0449 100.429 17.3442C99.6094 17.6315 98.5946 17.7231 97.3846 17.6192Z" fill="black"/>
<path d="M113.894 9.74293C114.721 9.96853 115.404 10.3256 115.941 10.814C116.491 11.3059 116.856 11.9253 117.036 12.672C117.215 13.4186 117.17 14.2887 116.899 15.2821L115.311 21.1086L113.477 20.6088L115.008 14.9924C115.275 14.0118 115.234 13.2071 114.886 12.5786C114.55 11.9535 113.949 11.5229 113.083 11.2869C112.433 11.1099 111.832 11.0828 111.279 11.2056C110.725 11.3284 110.247 11.6017 109.844 12.0255C109.454 12.4528 109.159 13.0358 108.957 13.7744L107.536 18.9896L105.702 18.4898L109.565 4.31519L111.399 4.81499L109.551 11.5967L109.386 10.7718C109.897 10.1998 110.547 9.82285 111.336 9.64094C112.124 9.45904 112.977 9.49303 113.894 9.74293Z" fill="black"/>
<path d="M124.856 25.3613L125.808 23.3586L125.898 22.9406L127.521 19.5251C127.867 18.798 127.919 18.1356 127.677 17.5382C127.452 16.9345 126.917 16.4314 126.07 16.029C125.51 15.7626 124.916 15.5972 124.289 15.5329C123.668 15.4567 123.099 15.4857 122.582 15.6199L122.479 13.9924C123.154 13.8314 123.88 13.8111 124.656 13.9315C125.45 14.0456 126.222 14.2813 126.973 14.6383C128.272 15.2561 129.123 16.0482 129.526 17.0144C129.929 17.9806 129.822 19.1135 129.204 20.4129L126.483 26.135L124.856 25.3613ZM121.694 23.9893C120.99 23.6549 120.427 23.2409 120.004 22.7474C119.593 22.2596 119.343 21.7391 119.256 21.1858C119.174 20.6206 119.26 20.0698 119.515 19.5333C119.759 19.0207 120.099 18.6125 120.536 18.3086C120.985 18.0104 121.543 17.8665 122.21 17.8769C122.89 17.8929 123.7 18.1248 124.642 18.5726L127.646 20.0009L127.059 21.2348L124.127 19.8404C123.268 19.4323 122.622 19.3005 122.188 19.4449C121.754 19.5893 121.441 19.8642 121.248 20.2695C121.027 20.7344 121.033 21.1978 121.267 21.6596C121.506 22.1095 121.953 22.4903 122.609 22.8021C123.253 23.1081 123.881 23.2315 124.494 23.1721C125.119 23.1184 125.669 22.8683 126.144 22.422L125.923 23.7637C125.43 24.2163 124.818 24.4735 124.087 24.5352C123.362 24.585 122.564 24.403 121.694 23.9893Z" fill="black"/>
<path d="M140.581 22.7041C141.279 23.203 141.795 23.7748 142.129 24.4194C142.474 25.0717 142.601 25.7791 142.511 26.5417C142.42 27.3043 142.075 28.1044 141.476 28.942L137.965 33.855L136.418 32.7496L139.803 28.0139C140.394 27.187 140.636 26.4183 140.527 25.7078C140.429 25.005 140.015 24.3926 139.285 23.8706C138.737 23.4792 138.182 23.245 137.621 23.168C137.059 23.0911 136.516 23.1815 135.991 23.4391C135.477 23.7044 134.997 24.1484 134.552 24.7713L131.409 29.1688L129.862 28.0634L135.965 19.5262L137.447 20.5855L135.8 22.8889L135.996 22.1041C136.674 21.7453 137.415 21.6174 138.217 21.7205C139.02 21.8236 139.808 22.1514 140.581 22.7041Z" fill="black"/>
<path d="M145.377 41.3519C144.649 40.5689 144.105 39.7318 143.745 38.8408C143.395 37.9408 143.227 37.0333 143.242 36.1186C143.266 35.1948 143.466 34.3054 143.843 33.4505C144.22 32.5956 144.785 31.8176 145.539 31.1165C146.293 30.4154 147.11 29.9081 147.99 29.5945C148.87 29.281 149.767 29.1501 150.68 29.202C151.612 29.2546 152.51 29.4927 153.372 29.9164C154.244 30.3311 155.049 30.9347 155.786 31.7274C156.532 32.5298 157.085 33.3858 157.444 34.2955C157.803 35.2052 157.937 36.1348 157.847 37.0841L156.112 37.021C156.131 36.2278 156.004 35.4994 155.729 34.8356C155.473 34.1725 155.08 33.5557 154.55 32.9854C154.01 32.4054 153.41 31.9539 152.749 31.631C152.098 31.3177 151.427 31.1392 150.738 31.0955C150.057 31.0614 149.381 31.1675 148.709 31.4139C148.055 31.661 147.448 32.0452 146.887 32.5666C146.336 33.0789 145.909 33.6564 145.605 34.2992C145.32 34.9426 145.165 35.6095 145.14 36.2997C145.134 36.9906 145.263 37.6725 145.528 38.3453C145.793 39.018 146.196 39.6444 146.735 40.2245C147.238 40.7658 147.801 41.2066 148.424 41.5468C149.065 41.8877 149.782 42.0866 150.574 42.1434L150.24 43.9946C149.348 43.8874 148.475 43.5988 147.624 43.1288C146.791 42.6596 146.042 42.0673 145.377 41.3519ZM149.134 42.4273L152.905 38.9218L154.199 40.3138L150.24 43.9946L149.134 42.4273Z" fill="black"/>
<path d="M151.302 48.4259L160.036 42.6083L161.046 44.1243L158.673 45.705L159.168 45.1615C159.933 45.0007 160.665 45.0999 161.364 45.4589C162.063 45.818 162.691 46.415 163.247 47.2499L161.714 48.2707C161.682 48.1975 161.643 48.1279 161.599 48.062C161.563 48.0071 161.526 47.9521 161.489 47.8972C160.926 47.0513 160.227 46.5494 159.392 46.3917C158.558 46.2339 157.662 46.4734 156.707 47.11L152.356 50.0078L151.302 48.4259Z" fill="black"/>
<path d="M157.523 59.3304C157.067 58.3776 156.872 57.4324 156.935 56.4948C156.999 55.5571 157.292 54.7004 157.814 53.9244C158.347 53.1427 159.078 52.5299 160.007 52.0859C160.948 51.6363 161.884 51.4522 162.816 51.5337C163.747 51.6153 164.592 51.9285 165.35 52.4734C166.119 53.0125 166.732 53.7585 167.187 54.7113C167.637 55.6522 167.83 56.5914 167.766 57.529C167.72 58.4729 167.433 59.3268 166.906 60.0909C166.396 60.8611 165.665 61.4739 164.712 61.9293C163.771 62.379 162.835 62.563 161.903 62.4815C160.978 62.4119 160.127 62.1015 159.352 61.5504C158.582 61.0113 157.972 60.2712 157.523 59.3304ZM159.023 58.6132C159.314 59.2206 159.709 59.697 160.211 60.0425C160.718 60.3998 161.288 60.596 161.919 60.6308C162.562 60.66 163.217 60.5152 163.884 60.1964C164.563 59.872 165.081 59.4561 165.438 58.9488C165.807 58.4358 166.012 57.8697 166.053 57.2505C166.099 56.6432 165.977 56.0359 165.687 55.4285C165.396 54.8211 165 54.3447 164.499 53.9992C163.997 53.6537 163.428 53.4576 162.791 53.4108C162.166 53.3584 161.514 53.4944 160.836 53.8188C160.169 54.1376 159.647 54.5622 159.272 55.0928C158.908 55.6177 158.703 56.1838 158.657 56.7911C158.611 57.3984 158.733 58.0058 159.023 58.6132Z" fill="black"/>
<path d="M162.002 71.3321C161.768 70.4655 161.721 69.6578 161.861 68.9092C162.004 68.1733 162.351 67.5329 162.901 66.988C163.468 66.4525 164.248 66.0506 165.242 65.7825L171.073 64.2101L171.568 66.0454L165.947 67.5611C164.953 67.8292 164.271 68.266 163.901 68.8716C163.535 69.4899 163.469 70.2324 163.702 71.0991C163.874 71.7363 164.151 72.2563 164.533 72.6591C164.928 73.0585 165.408 73.3186 165.974 73.4395C166.553 73.5569 167.199 73.5194 167.912 73.3269L173.151 71.9143L173.645 73.7495L163.513 76.4819L163.044 74.7423L165.778 74.005L165.129 74.4877C164.364 74.3385 163.708 73.9824 163.159 73.4193C162.611 72.8563 162.225 72.1605 162.002 71.3321Z" fill="black"/>
<path d="M164.491 86.051C164.426 85.1823 164.563 84.3711 164.904 83.6175C165.259 82.8761 165.815 82.2586 166.572 81.765C167.33 81.2845 168.301 80.9999 169.486 80.911C170.671 80.8222 171.673 80.9522 172.494 81.301C173.315 81.663 173.95 82.1846 174.398 82.8658C174.847 83.5601 175.105 84.3548 175.173 85.2499C175.25 86.2766 175.094 87.2017 174.706 88.025C174.317 88.8484 173.739 89.5205 172.971 90.0414C172.215 90.5614 171.305 90.8613 170.238 90.9413C169.172 91.0212 168.22 90.861 167.383 90.4605C166.545 90.06 165.873 89.4816 165.366 88.7254C164.86 87.9692 164.568 87.0777 164.491 86.051ZM160.363 80.7812L174.658 79.7091L174.794 81.5256L171.97 81.7373L169.533 81.801L167.119 82.1806L160.505 82.6767L160.363 80.7812ZM166.137 85.7687C166.188 86.44 166.384 87.0276 166.726 87.5314C167.07 88.0483 167.529 88.4375 168.104 88.6988C168.694 88.9722 169.358 89.0813 170.095 89.026C170.845 88.9698 171.478 88.7634 171.994 88.4071C172.524 88.0628 172.92 87.6095 173.183 87.0472C173.446 86.4979 173.552 85.8877 173.502 85.2163C173.453 84.5582 173.256 83.9706 172.913 83.4536C172.571 82.9498 172.112 82.5607 171.535 82.2862C170.973 82.024 170.316 81.921 169.566 81.9772C168.829 82.0325 168.189 82.2328 167.645 82.578C167.116 82.9353 166.72 83.3886 166.457 83.9379C166.195 84.5003 166.088 85.1105 166.137 85.7687Z" fill="black"/>
<path d="M165.339 112.654C165.427 112.35 165.579 112.085 165.795 111.858C166.024 111.636 166.295 111.481 166.609 111.393C166.92 111.317 167.246 111.329 167.588 111.428C167.918 111.523 168.188 111.683 168.398 111.908C168.617 112.15 168.764 112.426 168.839 112.736C168.914 113.046 168.908 113.354 168.821 113.658C168.729 113.975 168.571 114.238 168.345 114.448C168.116 114.671 167.847 114.82 167.537 114.895C167.239 114.974 166.925 114.966 166.596 114.871C166.253 114.772 165.971 114.609 165.748 114.38C165.526 114.151 165.377 113.881 165.301 113.571C165.235 113.277 165.248 112.971 165.339 112.654Z" fill="black"/>
<path d="M150.572 134.244C151.192 133.39 151.914 132.666 152.736 132.072C153.57 131.487 154.358 131.121 155.1 130.975L155.919 132.475C155.235 132.631 154.529 132.951 153.803 133.434C153.076 133.918 152.453 134.518 151.933 135.233C151.46 135.885 151.151 136.468 151.006 136.982C150.86 137.497 150.846 137.943 150.963 138.321C151.09 138.708 151.319 139.021 151.65 139.261C152.035 139.541 152.438 139.638 152.859 139.552C153.272 139.477 153.696 139.287 154.129 138.982C154.566 138.695 155.012 138.351 155.468 137.948C155.924 137.545 156.4 137.148 156.895 136.757C157.394 136.385 157.903 136.078 158.422 135.835C158.933 135.603 159.465 135.5 160.017 135.525C160.58 135.559 161.16 135.793 161.759 136.228C162.335 136.646 162.755 137.18 163.019 137.828C163.285 138.495 163.334 139.248 163.164 140.087C162.998 140.945 162.558 141.866 161.844 142.848C161.371 143.5 160.816 144.084 160.18 144.6C159.543 145.117 158.894 145.494 158.233 145.731L157.335 144.272C158.004 144.024 158.603 143.683 159.129 143.25C159.667 142.825 160.118 142.361 160.482 141.859C160.94 141.229 161.236 140.653 161.371 140.131C161.505 139.608 161.509 139.154 161.382 138.768C161.246 138.393 161.013 138.085 160.682 137.844C160.287 137.557 159.883 137.451 159.469 137.526C159.048 137.612 158.625 137.802 158.199 138.096C157.765 138.401 157.315 138.751 156.849 139.146C156.393 139.549 155.921 139.941 155.433 140.32C154.937 140.711 154.434 141.022 153.922 141.254C153.403 141.497 152.868 141.606 152.316 141.58C151.763 141.554 151.193 141.328 150.606 140.901C150.04 140.49 149.624 139.951 149.358 139.285C149.102 138.626 149.061 137.862 149.235 136.993C149.413 136.143 149.858 135.227 150.572 134.244Z" fill="black"/>
<path d="M148.793 152.459C148.173 153.053 147.516 153.453 146.82 153.662C146.115 153.88 145.397 153.874 144.664 153.643C143.932 153.412 143.209 152.925 142.498 152.181L138.323 147.817L139.696 146.503L143.72 150.709C144.423 151.443 145.134 151.823 145.852 151.848C146.561 151.883 147.239 151.59 147.888 150.969C148.374 150.504 148.707 150.002 148.887 149.465C149.067 148.927 149.079 148.376 148.924 147.813C148.759 147.258 148.411 146.705 147.882 146.151L144.145 142.246L145.518 140.932L155.675 151.547L154.302 152.861L149.443 147.782L150.235 148.066C150.461 148.799 150.449 149.55 150.199 150.32C149.949 151.089 149.48 151.802 148.793 152.459Z" fill="black"/>
<path d="M129.758 153.83L130.987 155.676L131.3 155.967L133.396 159.115C133.842 159.785 134.384 160.17 135.021 160.269C135.654 160.387 136.361 160.186 137.141 159.667C137.657 159.323 138.104 158.898 138.481 158.393C138.866 157.899 139.134 157.396 139.284 156.884L140.733 157.631C140.524 158.294 140.169 158.927 139.667 159.531C139.161 160.153 138.562 160.694 137.87 161.155C136.673 161.953 135.556 162.276 134.52 162.125C133.484 161.974 132.567 161.3 131.77 160.103L128.258 154.828L129.758 153.83ZM132.56 151.822C133.208 151.39 133.853 151.12 134.494 151.01C135.123 150.908 135.698 150.962 136.218 151.171C136.745 151.391 137.173 151.748 137.502 152.242C137.817 152.715 137.992 153.216 138.029 153.747C138.054 154.285 137.891 154.838 137.539 155.405C137.176 155.98 136.561 156.556 135.693 157.134L132.924 158.977L132.167 157.84L134.869 156.041C135.661 155.514 136.106 155.027 136.205 154.581C136.304 154.134 136.229 153.724 135.98 153.351C135.695 152.922 135.294 152.689 134.778 152.652C134.269 152.626 133.713 152.815 133.108 153.217C132.515 153.612 132.086 154.088 131.823 154.644C131.548 155.208 131.48 155.808 131.618 156.445L130.581 155.566C130.446 154.91 130.54 154.253 130.862 153.595C131.192 152.947 131.758 152.356 132.56 151.822Z" fill="black"/>
<path d="M123.946 168.691C123.159 169.033 122.403 169.182 121.679 169.137C120.942 169.098 120.27 168.843 119.662 168.373C119.055 167.903 118.546 167.196 118.135 166.252L115.727 160.714L117.47 159.956L119.791 165.294C120.197 166.227 120.732 166.829 121.397 167.101C122.051 167.378 122.789 167.338 123.612 166.98C124.229 166.711 124.715 166.356 125.07 165.914C125.425 165.472 125.626 164.959 125.675 164.377C125.712 163.799 125.578 163.159 125.272 162.457L123.117 157.5L124.86 156.742L129.045 166.366L127.375 167.092L126.245 164.496L126.818 165.067C126.777 165.834 126.506 166.534 126.005 167.17C125.504 167.805 124.818 168.312 123.946 168.691Z" fill="black"/>
<path d="M105.465 163.203C106.512 162.984 107.51 162.95 108.459 163.102C109.41 163.267 110.274 163.592 111.05 164.077C111.828 164.575 112.486 165.206 113.024 165.97C113.561 166.734 113.936 167.62 114.147 168.628C114.358 169.635 114.37 170.597 114.184 171.512C113.998 172.428 113.647 173.263 113.131 174.019C112.605 174.79 111.938 175.435 111.129 175.955C110.324 176.488 109.391 176.865 108.332 177.087C107.26 177.312 106.241 177.343 105.277 177.181C104.312 177.018 103.447 176.653 102.681 176.086L103.631 174.632C104.3 175.059 104.989 175.326 105.7 175.433C106.4 175.556 107.131 175.538 107.893 175.379C108.669 175.216 109.365 174.936 109.983 174.536C110.588 174.14 111.087 173.658 111.48 173.09C111.861 172.525 112.119 171.891 112.255 171.188C112.381 170.501 112.366 169.783 112.209 169.033C112.055 168.297 111.781 167.633 111.387 167.041C110.983 166.465 110.492 165.987 109.914 165.609C109.326 165.247 108.675 165.006 107.962 164.885C107.249 164.765 106.505 164.786 105.73 164.948C105.006 165.1 104.338 165.354 103.725 165.712C103.102 166.085 102.562 166.596 102.104 167.245L100.691 166.003C101.244 165.294 101.941 164.696 102.783 164.21C103.615 163.739 104.509 163.403 105.465 163.203ZM102.604 165.866L103.659 170.904L101.799 171.294L100.691 166.003L102.604 165.866Z" fill="black"/>
<path d="M96.3918 164.617L96.8654 175.101L95.0456 175.183L94.917 172.334L95.1272 173.038C94.8698 173.777 94.4069 174.353 93.7385 174.766C93.0701 175.179 92.2348 175.409 91.2326 175.454L91.1495 173.615C91.2292 173.624 91.3086 173.627 91.3878 173.624C91.4537 173.621 91.5196 173.618 91.5855 173.615C92.6009 173.569 93.3916 173.229 93.9576 172.596C94.5236 171.962 94.7807 171.072 94.7288 169.925L94.4929 164.703L96.3918 164.617Z" fill="black"/>
<path d="M83.7096 164.313C84.7607 164.415 85.6713 164.735 86.4415 165.273C87.2116 165.812 87.7945 166.505 88.19 167.352C88.5843 168.212 88.7319 169.155 88.6329 170.18C88.5326 171.217 88.2072 172.114 87.6567 172.87C87.1063 173.626 86.4022 174.188 85.5444 174.556C84.6854 174.937 83.7303 175.077 82.6792 174.975C81.6412 174.875 80.7372 174.555 79.967 174.017C79.1824 173.49 78.5989 172.804 78.2165 171.958C77.8197 171.124 77.6721 170.181 77.7737 169.13C77.874 168.092 78.1994 167.195 78.7498 166.439C79.2871 165.682 79.9919 165.114 80.8641 164.734C81.7231 164.353 82.6716 164.213 83.7096 164.313ZM83.5496 165.968C82.8795 165.904 82.2671 165.997 81.7123 166.248C81.1444 166.499 80.6827 166.885 80.3272 167.408C79.9704 167.943 79.7565 168.579 79.6854 169.315C79.613 170.064 79.7019 170.722 79.952 171.29C80.2009 171.871 80.58 172.339 81.0895 172.693C81.5859 173.046 82.1691 173.255 82.8392 173.32C83.5092 173.384 84.1217 173.291 84.6764 173.04C85.2312 172.788 85.6929 172.402 86.0615 171.88C86.4289 171.372 86.6488 170.744 86.7212 169.995C86.7923 169.259 86.6975 168.593 86.4367 167.998C86.1747 167.416 85.7956 166.948 85.2992 166.595C84.8029 166.242 84.2197 166.033 83.5496 165.968Z" fill="black"/>
<path d="M71.1281 161.965C71.9912 162.211 72.7075 162.587 73.277 163.093C73.8338 163.595 74.2038 164.222 74.3872 164.975C74.5542 165.736 74.4964 166.612 74.2138 167.602L72.5564 173.409L70.7286 172.888L72.3262 167.29C72.6088 166.3 72.5859 165.49 72.2576 164.861C71.9165 164.229 71.3144 163.789 70.4513 163.543C69.8166 163.362 69.2283 163.331 68.6862 163.451C68.1404 163.583 67.67 163.861 67.2748 164.283C66.8761 164.719 66.5752 165.292 66.3724 166.002L64.8834 171.219L63.0556 170.698L65.9357 160.607L67.6683 161.101L66.8912 163.824L66.8121 163.019C67.3342 162.44 67.9777 162.061 68.7428 161.881C69.5079 161.702 70.303 161.73 71.1281 161.965Z" fill="black"/>
<path d="M57.2221 156.503C57.9998 156.896 58.6235 157.433 59.0931 158.113C59.545 158.8 59.7869 159.595 59.8188 160.498C59.8389 161.395 59.5813 162.374 59.0458 163.435C58.5104 164.495 57.8816 165.287 57.1594 165.81C56.4254 166.326 55.651 166.601 54.8362 166.633C54.0096 166.659 53.1957 166.47 52.3944 166.065C51.4753 165.601 50.7634 164.991 50.2587 164.233C49.7539 163.476 49.4768 162.633 49.4273 161.706C49.3718 160.791 49.585 159.856 50.0669 158.902C50.5488 157.947 51.1773 157.215 51.9527 156.704C52.728 156.194 53.5703 155.916 54.4795 155.873C55.3888 155.829 56.303 156.039 57.2221 156.503ZM63.8664 155.688L57.4058 168.485L55.7797 167.664L57.0557 165.136L58.2594 163.016L59.1802 160.752L62.1696 154.831L63.8664 155.688ZM56.6139 158.059C56.013 157.756 55.4084 157.621 54.8002 157.654C54.1803 157.681 53.6099 157.874 53.089 158.232C52.5504 158.596 52.1145 159.107 51.7814 159.767C51.4423 160.439 51.2922 161.088 51.3311 161.714C51.3522 162.345 51.5359 162.919 51.8822 163.434C52.2167 163.943 52.6845 164.349 53.2854 164.652C53.8746 164.95 54.4792 165.085 55.0991 165.058C55.7073 165.025 56.2777 164.832 56.8103 164.48C57.3253 164.134 57.7523 163.625 58.0914 162.953C58.4245 162.293 58.5835 161.641 58.5683 160.998C58.5353 160.36 58.3516 159.787 58.0171 159.278C57.6708 158.763 57.2031 158.357 56.6139 158.059Z" fill="black"/>
<path d="M34.1153 143.57C34.331 143.802 34.4801 144.069 34.5625 144.371C34.6353 144.681 34.6286 144.994 34.5424 145.309C34.4472 145.613 34.2692 145.887 34.0082 146.13C33.7568 146.363 33.4805 146.512 33.1793 146.576C32.8595 146.639 32.5472 146.623 32.2424 146.528C31.9377 146.433 31.6774 146.269 31.4617 146.037C31.237 145.795 31.0928 145.524 31.029 145.223C30.9563 144.912 30.9675 144.604 31.0626 144.299C31.1481 144.004 31.3165 143.739 31.5678 143.505C31.8289 143.262 32.1148 143.105 32.4257 143.032C32.7365 142.959 33.0443 142.97 33.3491 143.066C33.6352 143.16 33.8906 143.328 34.1153 143.57Z" fill="black"/>
<path d="M23.1718 119.781C23.5854 120.753 23.8352 121.744 23.9212 122.755C23.9951 123.771 23.9037 124.634 23.6473 125.346L21.9393 125.277C22.1575 124.61 22.246 123.841 22.2048 122.969C22.1635 122.097 21.9697 121.254 21.6233 120.441C21.3078 119.7 20.9669 119.135 20.6004 118.746C20.2338 118.356 19.8583 118.115 19.4737 118.02C19.077 117.931 18.6904 117.966 18.3139 118.127C17.8767 118.313 17.5866 118.608 17.4435 119.014C17.2952 119.407 17.2404 119.868 17.279 120.396C17.3003 120.918 17.3665 121.478 17.4778 122.076C17.589 122.675 17.6846 123.287 17.7646 123.913C17.8272 124.531 17.8293 125.126 17.7707 125.696C17.707 126.254 17.522 126.763 17.2159 127.223C16.8976 127.689 16.3984 128.066 15.7182 128.356C15.0624 128.635 14.3888 128.721 13.6975 128.614C12.9889 128.499 12.3181 128.154 11.6851 127.577C11.0348 126.993 10.4718 126.142 9.99607 125.025C9.68066 124.284 9.46499 123.508 9.34907 122.696C9.23314 121.885 9.2436 121.135 9.38044 120.445L11.0938 120.426C10.9621 121.127 10.9466 121.815 11.0473 122.49C11.1358 123.17 11.3015 123.795 11.5446 124.366C11.8496 125.082 12.1915 125.632 12.5702 126.016C12.9488 126.4 13.3365 126.637 13.7332 126.726C14.1248 126.804 14.5088 126.762 14.8853 126.602C15.3346 126.41 15.6335 126.118 15.7817 125.725C15.9248 125.32 15.9796 124.859 15.9462 124.342C15.9076 123.814 15.8388 123.248 15.7397 122.644C15.6285 122.046 15.5354 121.44 15.4606 120.826C15.3807 120.2 15.3726 119.608 15.4363 119.05C15.4948 118.48 15.6772 117.965 15.9833 117.505C16.2895 117.044 16.7766 116.672 17.4445 116.388C18.0882 116.114 18.7644 116.034 19.473 116.148C20.1695 116.268 20.8455 116.626 21.501 117.222C22.1391 117.811 22.6961 118.664 23.1718 119.781Z" fill="black"/>
<path d="M8.47392 108.861C8.28578 108.024 8.28178 107.254 8.46192 106.55C8.63916 105.834 9.01567 105.222 9.59143 104.714C10.1672 104.205 10.9574 103.838 11.9619 103.613L17.8539 102.288L18.2707 104.143L12.5912 105.419C11.5995 105.642 10.9076 106.055 10.5153 106.657C10.1201 107.247 10.0209 107.979 10.2178 108.855C10.3654 109.512 10.623 110.056 10.9906 110.487C11.3581 110.919 11.8234 111.213 12.3865 111.371C12.9466 111.516 13.6002 111.504 14.3472 111.336L19.621 110.151L20.0378 112.005L5.7038 115.227L5.28699 113.373L12.1449 111.831L11.4933 112.363C10.7484 112.179 10.111 111.781 9.58121 111.169C9.05143 110.558 8.68233 109.789 8.47392 108.861Z" fill="black"/>
<path d="M17.1339 91.8812L14.9185 91.9808L14.5076 92.0983L10.7296 92.2682C9.92519 92.3043 9.31608 92.5695 8.90226 93.0638C8.47466 93.5455 8.2819 94.2545 8.32398 95.1907C8.35184 95.8105 8.48459 96.4123 8.72225 96.9963C8.94673 97.5808 9.23958 98.0697 9.6008 98.4631L8.2122 99.3183C7.75274 98.7972 7.39403 98.1659 7.13607 97.4243C6.86434 96.6702 6.7098 95.8777 6.67246 95.0469C6.60785 93.6096 6.90751 92.4862 7.57143 91.6768C8.23536 90.8673 9.28599 90.4303 10.7233 90.3657L17.053 90.0812L17.1339 91.8812ZM17.4072 95.3176C17.4422 96.0956 17.3412 96.7872 17.1041 97.3925C16.8664 97.9846 16.524 98.4492 16.0767 98.7864C15.6162 99.1242 15.0892 99.3065 14.4958 99.3332C13.9288 99.3587 13.4086 99.2499 12.9352 99.0069C12.4612 98.7507 12.0721 98.3256 11.7679 97.7314C11.4632 97.1241 11.2874 96.2996 11.2405 95.2578L11.0912 91.9348L12.456 91.8734L12.6018 95.1174C12.6445 96.0668 12.8315 96.6992 13.1628 97.0147C13.4941 97.3301 13.8839 97.4778 14.3322 97.4576C14.8465 97.4345 15.2527 97.2114 15.5508 96.7884C15.8357 96.366 15.9619 95.7922 15.9293 95.0669C15.8973 94.3548 15.7112 93.7422 15.371 93.2289C15.0302 92.7025 14.5512 92.3342 13.9339 92.1241L15.2225 91.6896C15.8536 91.9123 16.3679 92.3318 16.7656 92.9482C17.1501 93.5652 17.364 94.355 17.4072 95.3176Z" fill="black"/>
<path d="M7.40135 79.1273C7.5138 78.2767 7.77598 77.5524 8.18791 76.9544C8.60156 76.3434 9.1663 75.8987 9.88213 75.6205C10.598 75.3424 11.4662 75.2707 12.487 75.4057L18.4739 76.1971L18.2248 78.0815L12.4538 77.3186C11.4461 77.1854 10.6543 77.3337 10.0782 77.7635C9.5038 78.1802 9.1578 78.8335 9.04016 79.7234C8.95193 80.3908 9.00581 80.9904 9.20179 81.5223C9.39778 82.0542 9.73279 82.4912 10.2068 82.8335C10.6826 83.1627 11.3 83.3775 12.059 83.4778L17.4177 84.1862L17.1686 86.0706L6.76513 84.6953L7.00386 82.8894L9.81084 83.2605L9.02601 83.4563C8.3905 83.0261 7.92971 82.4326 7.64363 81.6758C7.35755 80.919 7.27679 80.0695 7.40135 79.1273Z" fill="black"/>
<path d="M21.619 66.1479C21.2679 67.1578 20.7829 68.0303 20.164 68.7654C19.5326 69.4962 18.8093 70.0693 17.9941 70.4846C17.1664 70.8956 16.2867 71.1347 15.3549 71.2021C14.4231 71.2694 13.4709 71.134 12.4984 70.7959C11.5259 70.4578 10.6952 69.9733 10.0061 69.3425C9.31708 68.7116 8.7817 67.9804 8.39998 67.149C8.01012 66.3007 7.80049 65.3963 7.77109 64.4358C7.72922 63.4709 7.88601 62.4773 8.24146 61.4549C8.60125 60.4201 9.09901 59.5311 9.73474 58.7878C10.3705 58.0446 11.129 57.4907 12.0103 57.1264L12.7667 58.689C12.0567 59.0431 11.4727 59.4969 11.0147 60.0504C10.5486 60.5871 10.1877 61.2232 9.93194 61.9588C9.67186 62.7069 9.55379 63.4485 9.57774 64.1835C9.60602 64.906 9.76223 65.5822 10.0464 66.2121C10.3348 66.8294 10.7452 67.3774 11.2776 67.856C11.8018 68.3177 12.4255 68.6743 13.1487 68.9257C13.8593 69.1728 14.5697 69.2801 15.2798 69.2474C15.9818 69.198 16.6436 69.0228 17.2653 68.7219C17.8789 68.4042 18.4209 67.9707 18.8913 67.4216C19.3617 66.8724 19.727 66.2238 19.9871 65.4757C20.2298 64.7775 20.3558 64.0736 20.3649 63.364C20.3659 62.6377 20.2061 61.9113 19.8857 61.185L21.6776 60.6132C22.0008 61.4522 22.1541 62.358 22.1374 63.3305C22.1126 64.2861 21.9398 65.2253 21.619 66.1479ZM20.8103 62.324L15.9478 60.6335L16.572 58.8381L21.6776 60.6132L20.8103 62.324Z" fill="black"/>
<path d="M25.0975 57.6122L15.8752 52.6049L16.7444 51.0041L19.2501 52.3645L18.5386 52.181C18.0392 51.5794 17.785 50.8856 17.7761 50.0998C17.7672 49.3139 18.0021 48.4801 18.4808 47.5985L20.099 48.4771C20.0496 48.5404 20.0061 48.6069 19.9683 48.6765C19.9368 48.7345 19.9053 48.7925 19.8738 48.8505C19.3888 49.7437 19.2714 50.5962 19.5216 51.408C19.7718 52.2197 20.4015 52.8996 21.4107 53.4476L26.0045 55.9417L25.0975 57.6122Z" fill="black"/>
<path d="M31.8349 47.0229C31.2053 47.8706 30.461 48.4853 29.6021 48.8668C28.7433 49.2483 27.849 49.3898 26.9192 49.2911C25.9789 49.1846 25.0954 48.8244 24.2689 48.2105C23.4317 47.5887 22.8316 46.847 22.4686 45.9854C22.1055 45.1238 21.9878 44.2307 22.1155 43.3061C22.2326 42.3736 22.606 41.4835 23.2357 40.6358C23.8575 39.7986 24.5978 39.1893 25.4567 38.8078C26.3128 38.4078 27.2018 38.2624 28.1237 38.3716C29.0429 38.4624 29.9263 38.8226 30.7741 39.4523C31.6112 40.0741 32.2113 40.8158 32.5744 41.6774C32.9453 42.5284 33.0683 43.4254 32.9433 44.3685C32.8262 45.3009 32.4567 46.1857 31.8349 47.0229ZM30.4998 46.0312C30.9012 45.4907 31.1374 44.9181 31.2085 44.3132C31.2875 43.6977 31.195 43.1028 30.9309 42.5285C30.6563 41.9463 30.2223 41.4349 29.6289 40.9941C29.0248 40.5455 28.4151 40.2817 27.7996 40.2027C27.1735 40.1158 26.5772 40.1991 26.0108 40.4526C25.4523 40.6954 24.9723 41.0871 24.5709 41.6275C24.1695 42.1679 23.9332 42.7406 23.8621 43.3455C23.791 43.9504 23.8835 44.5453 24.1397 45.1302C24.3853 45.7072 24.8101 46.22 25.4141 46.6687C26.0075 47.1094 26.6265 47.3719 27.271 47.456C27.905 47.5322 28.5013 47.4489 29.0598 47.2061C29.6184 46.9632 30.0983 46.5716 30.4998 46.0312Z" fill="black"/>
<path d="M40.3496 37.4429C39.6938 38.0558 39.0025 38.476 38.2757 38.7036C37.5586 38.9222 36.8303 38.9163 36.091 38.6859C35.3523 38.4368 34.6314 37.9362 33.9283 37.184L29.8047 32.772L31.1934 31.4741L35.1683 35.7269C35.8713 36.4791 36.577 36.8765 37.2854 36.9191C38.0033 36.9527 38.6902 36.663 39.346 36.0501C39.8282 35.5995 40.1575 35.1109 40.3341 34.5846C40.5016 34.0486 40.506 33.5024 40.3474 32.946C40.1797 32.38 39.8435 31.827 39.3388 31.2869L35.6342 27.3234L37.0229 26.0255L44.1886 33.6921L42.8722 34.9224L40.9389 32.8539L41.6696 33.2008C41.8966 33.9462 41.89 34.6932 41.6499 35.4415C41.4099 36.1899 40.9764 36.857 40.3496 37.4429Z" fill="black"/>
<path d="M52.1899 28.32C51.4536 28.7856 50.6729 29.0452 49.8476 29.0986C49.0265 29.1337 48.2201 28.9331 47.4286 28.4965C46.6483 28.053 45.9406 27.3292 45.3056 26.3251C44.6706 25.3211 44.3143 24.375 44.2368 23.4869C44.1705 22.5918 44.3327 21.7864 44.7234 21.0707C45.1253 20.3479 45.7056 19.7466 46.4642 19.2669C47.3344 18.7165 48.2241 18.4193 49.1333 18.3753C50.0426 18.3312 50.9077 18.526 51.7285 18.9596C52.5423 19.382 53.235 20.045 53.8065 20.9486C54.378 21.8523 54.6837 22.7678 54.7237 23.6953C54.7636 24.6228 54.5689 25.4878 54.1394 26.2905C53.7099 27.0931 53.0601 27.7696 52.1899 28.32ZM49.4774 34.44L41.8149 22.3245L43.3544 21.3508L44.8679 23.7438L46.0692 25.8656L47.5384 27.818L51.0839 33.4239L49.4774 34.44ZM51.167 26.999C51.736 26.6391 52.1625 26.1898 52.4464 25.651C52.7415 25.1051 52.8692 24.5168 52.8295 23.8859C52.7938 23.2369 52.5784 22.6 52.1833 21.9753C51.7811 21.3394 51.3015 20.8774 50.7445 20.5893C50.1916 20.2831 49.6053 20.1463 48.9856 20.179C48.3771 20.2046 47.7883 20.3973 47.2194 20.7572C46.6616 21.11 46.2351 21.5593 45.94 22.1052C45.656 22.644 45.5283 23.2323 45.5569 23.8702C45.5896 24.4899 45.8071 25.1177 46.2093 25.7536C46.6044 26.3783 47.0819 26.8494 47.6419 27.1668C48.206 27.4661 48.7923 27.6028 49.4008 27.5772C50.0205 27.5445 50.6092 27.3518 51.167 26.999Z" fill="black"/>
<path d="M75.2104 15.1473C74.9003 15.2122 74.5947 15.202 74.2937 15.1167C73.9899 15.0184 73.7256 14.8512 73.5009 14.6151C73.289 14.3762 73.1466 14.0824 73.0735 13.7335C73.0032 13.3976 73.0185 13.0842 73.1195 12.7934C73.2306 12.4869 73.4056 12.2277 73.6445 12.0159C73.8833 11.8041 74.1578 11.6657 74.4679 11.6008C74.7909 11.5331 75.0978 11.5498 75.3887 11.6507C75.6924 11.749 75.9502 11.9175 76.1621 12.1564C76.3712 12.3823 76.511 12.6632 76.5813 12.9992C76.6543 13.348 76.6417 13.6743 76.5435 13.9781C76.4453 14.2818 76.2767 14.5397 76.0379 14.7515C75.8092 14.9477 75.5334 15.0796 75.2104 15.1473Z" fill="black"/>
</svg>
